<svg width="157" height="33" viewBox="0 0 157 33" fill="none" xmlns="http://www.w3.org/2000/svg">
<path d="M32.0404 15.8266C32.0404 15.1588 31.9691 14.4989 31.8242 13.8469C31.8175 13.7728 31.8169 13.6981 31.8029 13.6251C31.367 11.3258 30.469 9.22195 29.1189 7.31244C28.3612 6.242 27.5008 5.26253 26.4849 4.4274C26.418 4.36338 26.3546 4.29542 26.2838 4.23701C23.4718 1.91864 20.2486 0.665669 16.6043 0.514593C15.5861 0.472471 14.5701 0.517401 13.5654 0.711722C13.4817 0.718461 13.3969 0.718461 13.3149 0.733625C11.1695 1.13855 9.15384 1.88101 7.3325 3.09973C3.43205 5.70902 1.01877 9.31968 0.226885 13.948C-0.306655 17.0667 0.103328 20.0921 1.42482 22.9878C4.42163 29.5543 11.616 33.8889 19.4085 32.0917C25.6559 30.6506 29.6754 26.681 31.5305 20.5453C31.9944 19.011 32.1196 17.4267 32.0404 15.8266ZM30.3595 20.2084C28.6617 25.6741 25.1443 29.4077 19.5562 30.768C13.3289 32.2832 8.17774 30.2496 4.23404 25.2377C2.19031 22.6407 1.15749 19.6406 1.21814 16.3225C1.29396 12.1974 2.90413 8.71313 5.85713 5.86234C7.85762 3.93093 10.2366 2.65942 12.9622 2.05849C12.9976 2.05062 13.0301 2.03153 13.0644 2.01749C13.0801 2.03209 13.0964 2.04332 13.1133 2.05175C13.1284 2.03265 13.1447 2.01637 13.1621 2.00401C13.8327 1.91303 14.5005 1.79621 15.1778 1.7597C19.0299 1.55528 22.4311 2.71221 25.4156 5.13954C26.3776 5.92187 27.233 6.81597 27.9518 7.81341C29.4334 9.87119 30.4494 12.1368 30.7605 14.6848C30.8728 15.6014 30.8874 16.5185 30.8605 17.4385H30.8588C30.8588 17.4385 30.8537 17.4413 30.8509 17.4435C30.8537 17.4474 30.8565 17.4514 30.8599 17.4547C30.7582 18.3848 30.6381 19.3126 30.3595 20.2084Z" fill="white"/>
<path d="M28.4876 16.3248C24.4041 12.2732 20.3183 8.22395 16.2387 4.16849C16.0814 4.01236 16.0039 3.98541 15.8298 4.15951C12.8459 7.14115 9.85418 10.1149 6.86355 13.0904C5.78355 14.1648 4.70187 15.238 3.62075 16.3118C3.49214 16.3933 3.38656 16.4781 3.5747 16.6084C3.74038 16.7662 3.90606 16.9235 4.07174 17.0813C4.14699 17.1633 4.21888 17.2486 4.29751 17.3273C8.12888 21.1384 11.9631 24.9479 15.7894 28.7652C15.9781 28.9534 16.0691 28.991 16.2808 28.7787C18.4722 26.5805 20.6788 24.3969 22.8787 22.2066C23.7857 21.3035 24.6854 20.3937 25.5885 19.4867C26.5759 18.5179 27.5615 17.5474 28.5522 16.5825C28.6977 16.4405 28.5556 16.3927 28.4876 16.3248ZM16.6436 26.4822V23.9021C16.6425 22.976 16.6425 22.0494 16.6414 21.1232V21.1025C16.6408 20.6234 16.6408 20.1449 16.6397 19.6664V19.6462C16.6391 19.1143 16.6385 18.5825 16.6374 18.0506V18.045C16.6374 17.831 16.6369 17.6176 16.6363 17.4036V17.3806C16.6363 17.2396 16.6425 17.1548 16.8463 17.1554C18.8418 17.1616 20.8372 17.1627 22.8321 17.1633H22.8489C23.8402 17.1633 24.8315 17.1633 25.8227 17.1638C25.8575 17.1638 25.8924 17.17 25.9901 17.1784C22.8894 20.3089 19.7994 23.3798 16.6436 26.4822ZM16.6459 6.55819C16.7705 6.59582 16.8362 6.68736 16.9115 6.76093C17.9342 7.76286 18.9552 8.76704 19.9774 9.76953C20.0437 9.83468 20.1155 9.89365 20.1846 9.95543C20.2178 9.988 20.2509 10.02 20.284 10.052C20.4037 10.2025 20.5379 10.339 20.6923 10.4541C20.7109 10.5036 20.7446 10.5378 20.7945 10.5552C20.8198 10.612 20.8603 10.653 20.9175 10.6765C21.3758 11.1416 21.8296 11.6105 22.2924 12.0711C23.2915 13.064 24.2951 14.053 25.2965 15.0431C25.3184 15.0993 25.3571 15.1392 25.4133 15.1611C25.4318 15.2139 25.4672 15.2498 25.52 15.2684C25.5419 15.3251 25.5807 15.3644 25.6374 15.3863C25.6565 15.4385 25.6919 15.4739 25.7441 15.493C25.8059 15.5711 25.8677 15.6486 25.9283 15.725C25.8688 15.7996 25.798 15.7676 25.7385 15.7676C22.8096 15.7682 19.8802 15.7643 16.9514 15.7704C16.72 15.771 16.6357 15.7384 16.6369 15.4733C16.6414 13.9895 16.6419 12.5052 16.6408 11.0214V11.0057C16.6447 10.8018 16.6492 10.6002 16.6593 10.3963C16.6683 10.2059 16.6537 10.0133 16.6402 9.82008V9.80491C16.6391 8.77434 16.6374 7.74433 16.6369 6.71376C16.6369 6.66883 16.6419 6.62334 16.6459 6.55819ZM15.3058 6.66209C15.3406 6.72667 15.353 6.80081 15.3496 6.88954C15.3479 6.93279 15.3451 6.9912 15.3592 7.03613V7.66009C15.3171 7.7286 15.3491 7.82689 15.3491 7.90102C15.3429 10.4463 15.344 12.9915 15.344 15.5368C15.344 15.5784 15.3463 15.6194 15.3513 15.6587C15.3339 15.7306 15.2834 15.7733 15.1379 15.7727C12.2107 15.7637 9.28357 15.7665 6.35585 15.7665H6.14299C9.20045 12.6961 12.2141 9.68529 15.3058 6.66209ZM15.3603 26.28C15.3603 26.3048 15.3519 26.3289 15.339 26.4036C12.2253 23.3546 9.17686 20.2915 6.0902 17.161H7.71665C10.1765 17.161 12.637 17.1621 15.0975 17.1593C15.2626 17.1593 15.367 17.1526 15.3665 17.3834C15.3575 20.3488 15.3609 23.3141 15.3603 26.28Z" fill="white"/>
<path d="M11.58 26.0402C10.9724 26.0425 10.3641 26.0464 9.75646 26.0329C7.90423 25.9908 6.57432 24.6469 6.55129 22.7974C6.54399 22.1898 6.54904 21.5821 6.5468 20.9739C6.5468 20.8829 6.56477 20.7863 6.48727 20.7105C6.12895 20.3611 5.77232 20.0112 5.37301 19.6204C5.42243 20.8037 5.34493 21.9258 5.42019 23.0474C5.57688 25.373 7.32633 27.0938 9.65368 27.1663C10.7095 27.1989 11.7671 27.1758 12.824 27.177C12.8656 27.177 12.9189 27.1927 12.9459 27.1242C12.61 26.8068 12.2691 26.4895 11.9344 26.1655C11.8316 26.0655 11.7182 26.0397 11.58 26.0402Z" fill="white"/>
<path d="M20.5154 6.96424C21.1051 6.9575 21.6943 6.95469 22.2834 6.96649C23.9671 6.99906 25.3611 8.26158 25.5442 9.9369C25.6172 10.6069 25.5576 11.2831 25.5678 11.9559C25.5689 12.048 25.5369 12.1497 25.6003 12.2289C25.9328 12.6389 26.3203 12.9938 26.7185 13.3521C26.7039 12.116 26.8303 10.8911 26.6455 9.6763C26.3473 7.71176 24.8214 6.1454 22.9433 5.89772C21.6898 5.73204 20.4267 5.87301 19.1681 5.82022C19.491 6.16225 19.7977 6.47788 20.0931 6.80305C20.2121 6.93391 20.3464 6.96649 20.5154 6.96424Z" fill="white"/>
<path d="M6.40021 12.326C6.5131 12.2098 6.54848 12.0834 6.54567 11.9239C6.53613 11.3909 6.53556 10.858 6.5395 10.325C6.55466 8.41322 7.94916 7.00131 9.8626 6.96593C10.4422 6.95582 11.0218 6.96761 11.6014 6.96705C11.6845 6.96705 11.8002 6.98727 11.8457 6.9429C12.2107 6.58065 12.5629 6.20605 12.9111 5.84212C11.8086 5.84212 10.6949 5.79495 9.58628 5.85223C7.39147 5.96624 5.65831 7.65784 5.4303 9.84591C5.31011 11.0023 5.40895 12.1626 5.42524 13.3555C5.74986 13.0118 6.0711 12.6652 6.40021 12.326Z" fill="white"/>
<path d="M26.7118 21.5231C26.7213 20.9031 26.714 20.2831 26.714 19.5928C26.358 19.9596 26.0232 20.2499 25.7424 20.5948C25.5801 20.6925 25.5414 20.8396 25.5408 21.0227C25.5397 21.7803 25.6127 22.5436 25.5099 23.2945C25.2976 24.8462 24.0373 25.965 22.4552 26.0301C21.792 26.0576 21.127 26.0357 20.4626 26.0369C20.3615 26.0374 20.2599 26.0195 20.1751 26.1076C19.8353 26.4598 19.491 26.808 19.1164 27.1904C20.3868 27.159 21.619 27.2387 22.8495 27.1365C23.0163 27.123 23.1831 27.0882 23.3465 27.0512C25.1825 26.6327 26.6343 24.9153 26.6562 23.1389C26.6668 23.1131 26.6781 23.0884 26.6781 23.0592V23.012C26.7539 22.5178 26.7045 22.019 26.7118 21.5231Z" fill="white"/>
<path d="M146.876 24.3537V7.96341H150.621V10.6951H150.792C151.09 9.74898 151.603 9.01981 152.328 8.50762C153.061 7.98831 153.897 7.72865 154.836 7.72865C155.049 7.72865 155.288 7.73932 155.551 7.76066C155.821 7.77489 156.045 7.79979 156.223 7.83536V11.3887C156.059 11.3318 155.8 11.282 155.444 11.2393C155.096 11.1895 154.758 11.1646 154.43 11.1646C153.726 11.1646 153.093 11.3176 152.531 11.6235C151.976 11.9222 151.539 12.3384 151.219 12.8719C150.898 13.4055 150.738 14.0208 150.738 14.718V24.3537H146.876Z" fill="white"/>
<path d="M136.92 24.6738C135.277 24.6738 133.858 24.3323 132.663 23.6494C131.475 22.9593 130.561 21.9848 129.92 20.7256C129.28 19.4593 128.96 17.969 128.96 16.2546C128.96 14.5686 129.28 13.0889 129.92 11.8155C130.568 10.5351 131.471 9.53912 132.631 8.82774C133.79 8.10924 135.153 7.75 136.718 7.75C137.728 7.75 138.681 7.91361 139.577 8.24085C140.481 8.56097 141.278 9.05894 141.968 9.73475C142.665 10.4106 143.213 11.2713 143.611 12.3171C144.009 13.3557 144.209 14.5935 144.209 16.0305V17.2149H130.774V14.6113H140.506C140.499 13.8714 140.339 13.2134 140.026 12.6372C139.713 12.0539 139.275 11.595 138.713 11.2607C138.158 10.9263 137.511 10.7591 136.771 10.7591C135.981 10.7591 135.288 10.9512 134.69 11.3354C134.093 11.7124 133.627 12.2104 133.292 12.8293C132.965 13.4411 132.798 14.1133 132.791 14.846V17.1189C132.791 18.0722 132.965 18.8902 133.314 19.5732C133.662 20.249 134.15 20.7683 134.776 21.1311C135.402 21.4868 136.134 21.6646 136.974 21.6646C137.536 21.6646 138.044 21.5864 138.5 21.4299C138.955 21.2663 139.35 21.0279 139.684 20.7149C140.019 20.4019 140.271 20.0142 140.442 19.5518L144.049 19.9573C143.821 20.9106 143.387 21.7429 142.747 22.4543C142.114 23.1585 141.303 23.7063 140.314 24.0976C139.325 24.4817 138.194 24.6738 136.92 24.6738Z" fill="white"/>
<path d="M123.93 24.5884C123.282 24.5884 122.727 24.3608 122.265 23.9055C121.803 23.4502 121.575 22.8953 121.582 22.2409C121.575 21.6006 121.803 21.0528 122.265 20.5976C122.727 20.1423 123.282 19.9146 123.93 19.9146C124.556 19.9146 125.1 20.1423 125.562 20.5976C126.032 21.0528 126.27 21.6006 126.277 22.2409C126.27 22.6748 126.156 23.0696 125.936 23.4253C125.722 23.781 125.438 24.0655 125.082 24.279C124.733 24.4853 124.349 24.5884 123.93 24.5884Z" fill="white"/>
<path d="M107.703 14.75V24.3537H103.84V7.96341H107.532V10.7485H107.724C108.101 9.83079 108.702 9.10162 109.528 8.56097C110.36 8.02032 111.388 7.75 112.611 7.75C113.742 7.75 114.728 7.99187 115.567 8.47561C116.414 8.95935 117.068 9.66006 117.531 10.5777C118 11.4954 118.231 12.6087 118.224 13.9177V24.3537H114.361V14.5152C114.361 13.4197 114.077 12.5625 113.508 11.9436C112.946 11.3247 112.167 11.0152 111.171 11.0152C110.495 11.0152 109.894 11.1646 109.367 11.4634C108.848 11.7551 108.439 12.1784 108.14 12.7332C107.849 13.2881 107.703 13.9604 107.703 14.75Z" fill="white"/>
<path d="M89.9928 14.75V24.3537H86.13V7.96341H89.8221V10.7485H90.0142C90.3912 9.83079 90.9923 9.10162 91.8175 8.56097C92.6498 8.02032 93.6778 7.75 94.9014 7.75C96.0325 7.75 97.0177 7.99187 97.8572 8.47561C98.7037 8.95935 99.3582 9.66006 99.8206 10.5777C100.29 11.4954 100.521 12.6087 100.514 13.9177V24.3537H96.6514V14.5152C96.6514 13.4197 96.3668 12.5625 95.7977 11.9436C95.2357 11.3247 94.4568 11.0152 93.4608 11.0152C92.785 11.0152 92.1839 11.1646 91.6575 11.4634C91.1382 11.7551 90.7291 12.1784 90.4303 12.7332C90.1387 13.2881 89.9928 13.9604 89.9928 14.75Z" fill="white"/>
<path d="M74.1929 24.6844C73.1543 24.6844 72.2188 24.4995 71.3865 24.1296C70.5613 23.7525 69.9068 23.1977 69.4231 22.4649C68.9465 21.7322 68.7081 20.8288 68.7081 19.7546C68.7081 18.8298 68.8789 18.065 69.2203 17.4604C69.5618 16.8557 70.0277 16.3719 70.6182 16.0091C71.2086 15.6463 71.8738 15.3725 72.6136 15.1875C73.3606 14.9954 74.1324 14.8567 74.9292 14.7713C75.8895 14.6717 76.6685 14.5828 77.2661 14.5046C77.8636 14.4192 78.2976 14.2912 78.5679 14.1204C78.8453 13.9426 78.9841 13.6687 78.9841 13.2988V13.2348C78.9841 12.4309 78.7457 11.8084 78.2691 11.3674C77.7925 10.9263 77.106 10.7058 76.2097 10.7058C75.2635 10.7058 74.513 10.9121 73.9581 11.3247C73.4104 11.7373 73.0405 12.2246 72.8484 12.7866L69.2417 12.2744C69.5262 11.2785 69.9957 10.4461 70.6502 9.77743C71.3047 9.10162 72.105 8.59654 73.0511 8.26219C73.9973 7.92073 75.043 7.75 76.1883 7.75C76.978 7.75 77.764 7.84248 78.5466 8.02743C79.3291 8.21239 80.044 8.51829 80.6914 8.94512C81.3387 9.36483 81.858 9.9375 82.2493 10.6631C82.6477 11.3887 82.8469 12.2957 82.8469 13.3841V24.3537H79.1334V22.1021H79.0054C78.7706 22.5574 78.4398 22.9842 78.013 23.3826C77.5933 23.7739 77.0633 24.0904 76.4231 24.3323C75.7899 24.5671 75.0466 24.6844 74.1929 24.6844ZM75.1959 21.846C75.9714 21.846 76.6436 21.6931 77.2127 21.3872C77.7818 21.0742 78.2193 20.6616 78.5252 20.1494C78.8382 19.6372 78.9947 19.0788 78.9947 18.4741V16.5427C78.8738 16.6423 78.6675 16.7348 78.3758 16.8201C78.0913 16.9055 77.7711 16.9802 77.4155 17.0442C77.0598 17.1082 76.7076 17.1651 76.3591 17.2149C76.0105 17.2647 75.7081 17.3074 75.452 17.343C74.8758 17.4212 74.3601 17.5493 73.9048 17.7271C73.4495 17.905 73.0903 18.154 72.827 18.4741C72.5638 18.7871 72.4322 19.1926 72.4322 19.6905C72.4322 20.4019 72.6919 20.939 73.2112 21.3018C73.7305 21.6646 74.3921 21.846 75.1959 21.846Z" fill="white"/>
<path d="M66.1052 2.5V24.3537H62.2424V2.5H66.1052Z" fill="white"/>
<path d="M44.0629 30.5V7.96341H47.8617V10.6738H48.0858C48.285 10.2754 48.566 9.85213 48.9288 9.40396C49.2916 8.94868 49.7824 8.56097 50.4013 8.24085C51.0202 7.91362 51.8099 7.75 52.7702 7.75C54.0365 7.75 55.1783 8.07367 56.1955 8.72103C57.2199 9.36128 58.0309 10.311 58.6285 11.5701C59.2331 12.8222 59.5355 14.3587 59.5355 16.1799C59.5355 17.9797 59.2402 19.5091 58.6498 20.7683C58.0594 22.0274 57.2555 22.9878 56.2382 23.6494C55.2209 24.311 54.0685 24.6418 52.7809 24.6418C51.8419 24.6418 51.0629 24.4853 50.444 24.1722C49.8251 23.8592 49.3271 23.4822 48.9501 23.0412C48.5802 22.593 48.2921 22.1697 48.0858 21.7713H47.9257V30.5H44.0629ZM47.851 16.1585C47.851 17.2185 48.0004 18.1468 48.2992 18.9436C48.6051 19.7403 49.0426 20.3628 49.6117 20.811C50.1879 21.252 50.8851 21.4726 51.7032 21.4726C52.5568 21.4726 53.2718 21.2449 53.848 20.7896C54.4242 20.3272 54.8581 19.6977 55.1498 18.9009C55.4486 18.097 55.598 17.1829 55.598 16.1585C55.598 15.1413 55.4521 14.2378 55.1605 13.4482C54.8688 12.6585 54.4349 12.0396 53.8586 11.5915C53.2824 11.1433 52.5639 10.9192 51.7032 10.9192C50.878 10.9192 50.1772 11.1362 49.601 11.5701C49.0248 12.0041 48.5873 12.6123 48.2885 13.3948C47.9969 14.1773 47.851 15.0986 47.851 16.1585Z" fill="white"/>
</svg>
